<?xml version="1.0" encoding="iso-8859-1"?>
<!-- Generator: Adobe Illustrator 18.0.0, SVG Export Plug-In . SVG Version: 6.00 Build 0)  -->
<!DOCTYPE svg PUBLIC "-//W3C//DTD SVG 1.1//EN" "http://www.w3.org/Graphics/SVG/1.1/DTD/svg11.dtd">
<svg version="1.1" id="Layer_1" xmlns="http://www.w3.org/2000/svg" xmlns:xlink="http://www.w3.org/1999/xlink" x="0px" y="0px"
	 viewBox="0 0 1536 995" style="enable-background:new 0 0 1536 995;" xml:space="preserve">
<g>
	<path d="M636.812,556.624c9.433,4.954,16.627,11.868,21.579,20.74c4.949,8.876,7.427,19.013,7.427,30.407
		c0,3.924-0.468,8.688-1.4,14.293c-0.748,4.861-1.962,9.906-3.644,15.135H538.021c-0.377,3.739-0.562,6.446-0.562,8.128
		c0,12.891,3.876,22.937,11.632,30.127c7.751,7.194,17.888,10.79,30.407,10.79c11.023,0,20.691-2.566,29.007-7.708
		c8.311-5.135,14.617-12.002,18.918-20.598h27.464c-6.726,14.762-17.053,26.764-30.969,36.013
		c-13.92,9.248-30.036,13.872-48.344,13.872c-19.245,0-34.708-5.556-46.382-16.674c-11.68-11.114-17.516-26.297-17.516-45.542
		c0-5.417,0.56-11.211,1.682-17.377c2.802-15.878,8.499-29.8,17.095-41.758c8.591-11.956,19.198-21.16,31.809-27.605
		c12.611-6.447,26.297-9.67,41.058-9.67C616.212,549.197,627.374,551.676,636.812,556.624z M639.475,608.331
		c0-11.955-3.785-21.202-11.352-27.745c-7.566-6.539-17.423-9.809-29.567-9.809c-13.08,0-24.943,4.251-35.592,12.752
		c-10.649,8.504-17.845,20.226-21.581,35.171h97.25C639.193,614.965,639.475,611.512,639.475,608.331z"/>
	<path d="M756.342,627.67l35.872,77.631h-28.866l-26.344-57.173l-45.121,57.173h-26.904l63.338-76.23l-35.874-77.353h28.866
		l26.064,56.613l44.841-56.613h26.904L756.342,627.67z"/>
	<path d="M850.926,699.837c-9.809-5.326-17.424-12.796-22.842-22.421c-5.422-9.621-8.128-20.783-8.128-33.491
		c0-17.377,4.015-33.303,12.051-47.784c8.031-14.478,19.101-25.923,33.211-34.333c14.105-8.408,29.847-12.611,47.222-12.611
		c12.893,0,24.335,2.663,34.333,7.988c9.993,5.324,17.748,12.8,23.261,22.421c5.509,9.624,8.268,20.878,8.268,33.771
		c0,17.375-4.112,33.258-12.331,47.643c-8.224,14.39-19.435,25.784-33.632,34.192c-14.201,8.408-29.988,12.611-47.363,12.611
		C872.084,707.823,860.733,705.161,850.926,699.837z M920.849,676.294c9.713-6.629,17.329-15.413,22.842-26.344
		c5.509-10.929,8.268-22.651,8.268-35.173c0-14.196-4.112-25.082-12.331-32.649c-8.224-7.567-18.497-11.35-30.828-11.35
		c-12.148,0-22.982,3.32-32.51,9.949c-9.529,6.634-16.914,15.462-22.141,26.485c-5.234,11.026-7.848,22.889-7.848,35.592
		c0,13.83,3.924,24.523,11.771,32.091c7.846,7.566,17.84,11.35,29.986,11.35C900.202,686.245,911.133,682.928,920.849,676.294z"/>
	<path d="M1071.068,558.025c11.023-5.886,23.074-8.828,36.154-8.828c11.954,0,22.56,2.479,31.809,7.427
		c9.249,4.954,16.396,12.051,21.44,21.301c5.046,9.248,7.568,20.135,7.568,32.649c0,5.422-0.56,11.211-1.682,17.377
		c-2.802,15.51-8.457,29.335-16.956,41.478c-8.504,12.148-18.874,21.581-31.108,28.306c-12.24,6.727-25.18,10.089-38.817,10.089
		c-13.08,0-24.058-2.943-32.929-8.828c-8.878-5.884-15.274-13.215-19.198-22l-17.657,101.174h-25.504l39.797-226.45h25.503
		l-5.044,28.306C1051.169,571.246,1060.042,563.911,1071.068,558.025z M1141.413,615.059c0-13.636-4.021-24.335-12.051-32.091
		c-8.036-7.751-18.405-11.63-31.11-11.63c-9.344,0-18.404,2.291-27.185,6.867c-8.784,4.581-16.302,11.211-22.56,19.899
		c-6.262,8.688-10.419,18.733-12.472,30.127c-0.749,3.924-1.122,8.224-1.122,12.891c0,13.641,4.065,24.432,12.192,32.371
		c8.127,7.943,18.449,11.91,30.969,11.91c9.528,0,18.636-2.286,27.324-6.867c8.689-4.575,16.16-11.209,22.422-19.897
		c6.257-8.689,10.412-18.918,12.47-30.689C1141.037,624.026,1141.413,619.731,1141.413,615.059z"/>
	<path d="M1207.131,586.612c8.501-11.863,18.87-21.063,31.11-27.605c12.234-6.537,25.267-9.809,39.095-9.809
		c13.453,0,24.568,2.899,33.352,8.689c8.779,5.792,14.853,13.08,18.217,21.859l5.044-28.026h25.784l-27.184,153.583h-25.784
		l5.324-28.586c-6.726,8.968-15.602,16.396-26.625,22.28c-11.026,5.886-23.169,8.828-36.434,8.828
		c-11.958,0-22.516-2.566-31.668-7.707c-9.156-5.137-16.255-12.472-21.301-22c-5.044-9.529-7.566-20.552-7.566-33.072
		c0-5.604,0.56-11.301,1.682-17.095C1192.979,612.255,1198.627,598.48,1207.131,586.612z M1321.617,615.619
		c0-13.636-4.063-24.427-12.19-32.371c-8.127-7.939-18.454-11.91-30.969-11.91c-9.529,0-18.638,2.242-27.325,6.726
		c-8.688,4.485-16.114,11.028-22.28,19.619c-6.167,8.596-10.278,18.685-12.333,30.268c-0.748,3.924-1.12,8.224-1.12,12.891
		c0,13.83,4.015,24.712,12.051,32.651c8.031,7.943,18.308,11.91,30.828,11.91c9.529,0,18.638-2.286,27.325-6.867
		c8.688-4.575,16.158-11.209,22.421-19.897c6.257-8.689,10.414-18.821,12.472-30.409
		C1321.24,624.306,1321.617,620.103,1321.617,615.619z"/>
	<path d="M1412.98,551.719l26.064,123.875l69.784-123.875h26.344l-132.282,225.89h-26.625l43.44-73.989l-35.032-151.901H1412.98z"/>
</g>
<path style="fill:#00CEFC;" d="M275.74,529.625l-83.996,145.083c-7.455,12.876-21.852,20.357-36.608,18.453
	c-13.493-1.741-27.123-10-28.667-35.709c-0.524-8.723,1.848-17.371,6.549-24.737c33.199-52.026,120.25-212.64,120.25-212.64
	s21.535-32.771,44.943,2.809c22.472,42.134,98.314,171.347,98.314,171.347l101.718-163.284c4.237-6.802,11.081-11.42,18.866-13.319
	c11.976-2.922,39.05,2.108,40.608,33.251c0.382,7.644-1.955,10.936-6.115,18.345c-35.712,63.604-113.372,196.676-125.342,217.631
	c-1.233,2.159-2.894,4.037-4.878,5.536c-8.08,6.103-29.578,19.01-44.52-2.655C354.391,654.155,275.74,529.625,275.74,529.625z"/>
<path style="fill:#008FB0;" d="M399.335,521.198l75.52-123.069c0.18-0.293,0.353-0.59,0.523-0.889
	c1.647-2.887,13.439-21.766,35.374-12.658c1.093,0.454,2.117-0.783,1.482-1.781l-34.245-53.814
	c-3.392-5.331-8.495-9.431-14.538-11.276c-8.281-2.528-19.756-1.45-30.407,15.287c-19.663,30.899-73.033,120.785-73.033,120.785
	L399.335,521.198z"/>
<path style="fill:#005B6F;" d="M341.386,415.507l70.721-119.682c1.066-1.803,2.351-3.465,3.849-4.929
	c5.423-5.299,18.953-15.818,36.24-9.803c1.071,0.373,2.026-0.78,1.436-1.749l-34.037-55.918c-2.952-4.85-7.552-8.488-12.972-10.178
	c-9.939-3.098-25.749-3.289-38.187,18.626c-18.689,32.928-62.754,109.842-67.073,117.379c-0.213,0.372-0.209,0.825,0.007,1.196
	l37.947,65.051C339.778,416.292,340.92,416.296,341.386,415.507z"/>
<path style="fill:#005B6F;" d="M36.979,524.007l131.578-226.761c0.378-0.651,0.784-1.259,1.247-1.852
	c3.543-4.541,18.727-21.405,43.887-13.967c1.05,0.311,1.924-0.861,1.355-1.796l-35.819-58.846c-1.398-2.297-3.385-4.167-5.774-5.4
	c-8.14-4.201-27.324-9.975-43.776,16.491C108.139,266.519,8.889,436.929,8.889,436.929s-10.3,14.045,0,36.516
	S36.979,524.007,36.979,524.007z"/>
<path style="fill:#008FB0;" d="M97.026,626.113l129.236-222.726c1.522-2.623,3.343-5.062,5.459-7.233
	c6.772-6.949,22.061-19.236,40.068-11.735c1.102,0.459,2.133-0.777,1.471-1.771l-39.386-59.078
	c-3.889-5.833-10.208-9.715-17.202-10.188c-9.115-0.617-21.497,3.885-33.628,25.235C159.838,379.459,66.689,540.861,65.089,543.633
	c-0.014,0.024-0.024,0.041-0.04,0.064c-0.439,0.643-8.172,12.362,0.019,28.062c7.347,14.082,25.37,46.314,29.869,54.342
	C95.393,626.914,96.558,626.919,97.026,626.113z"/>
</svg>
